<svg xmlns="http://www.w3.org/2000/svg" viewBox="0 0 268.67 99.03"><defs><style>.cls-1{fill:#83cfc7;}.cls-2{fill:#3c6361;}.cls-3{fill:#eee93d;}.cls-4{font-size:34.88px;fill:#fffef8;font-family:Audiowide-Regular, Audiowide;letter-spacing:0.1em;}.cls-5{letter-spacing:0.09em;}.cls-6{letter-spacing:0.1em;}.cls-7{letter-spacing:0.09em;}</style></defs><title>Asset 1</title><g id="Layer_2" data-name="Layer 2"><g id="Layer_1-2" data-name="Layer 1"><rect class="cls-1" x="1.19" y="34.25" width="13" height="15.15"/><rect class="cls-2" x="23.37" y="16.67" width="13" height="32.72"/><rect class="cls-3" x="45.56" width="13" height="49.39"/><rect class="cls-1" x="68.1" y="28.35" width="13" height="21.05"/><rect class="cls-2" x="89.92" y="12.66" width="13" height="36.74"/><rect class="cls-3" x="113.02" y="39.22" width="13" height="10.17"/><rect class="cls-1" x="247.02" y="49.64" width="13" height="15.15" transform="translate(507.04 114.43) rotate(180)"/><rect class="cls-2" x="224.84" y="49.64" width="13" height="32.72" transform="translate(462.67 132) rotate(180)"/><rect class="cls-3" x="202.65" y="49.64" width="13" height="49.39" transform="translate(418.3 148.68) rotate(180)"/><rect class="cls-1" x="180.11" y="49.64" width="13" height="21.05" transform="translate(373.21 120.33) rotate(180)"/><rect class="cls-2" x="158.28" y="49.64" width="13" height="36.74" transform="translate(329.57 136.02) rotate(180)"/><rect class="cls-3" x="135.19" y="49.64" width="13" height="10.17" transform="translate(283.37 109.46) rotate(180)"/><text class="cls-4" transform="translate(131.72 39.22) scale(1.03 1)">WU<tspan class="cls-5" x="71.02" y="0">0</tspan><tspan class="cls-6" x="106.49" y="0">7</tspan></text><text class="cls-4" transform="translate(0 84.22) scale(1.03 1)">1<tspan class="cls-7" x="15.85" y="0">8</tspan><tspan x="45.08" y="0">WD</tspan></text></g></g></svg>